<?xml version="1.0" encoding="utf-8"?>
<!DOCTYPE svg PUBLIC "-//W3C//DTD SVG 20010904//EN" "http://www.w3.org/TR/2001/REC-SVG-20010904/DTD/svg10.dtd">
<svg version="1.0" xmlns="http://www.w3.org/2000/svg" width="396pt" height="338pt" viewBox="0 0 396 338" style="" preserveAspectRatio="xMidYMid meet">
<g fill="#F8896CFD" stroke="#F8896CFD">
<path d="M 155.157 14.168 C 154.965 18.662 154.150 20.938 152.643 21.195 C 152.014 21.302 152.850 21.443 154.500 21.509 C 157.389 21.624 157.419 21.673 155.316 22.814 C 154.114 23.466 149.783 24.000 145.691 24.000 C 141.598 24.000 136.844 24.281 135.125 24.625 C 132.234 25.203 131.999 25.560 131.985 29.375 C 131.960 36.143 131.327 36.532 120.785 36.262 C 108.474 35.946 108.000 36.138 108.000 41.445 C 108.000 46.530 106.769 47.802 100.880 48.808 C 96.711 49.519 96.519 49.711 95.808 53.880 C 94.887 59.270 93.501 61.000 90.100 61.000 C 86.845 61.000 83.050 63.519 82.858 65.807 C 82.780 66.738 82.382 65.925 81.973 64.000 C 81.417 61.380 81.353 61.758 81.721 65.500 C 81.991 68.250 82.314 71.577 82.439 72.894 C 82.563 74.210 82.110 76.910 81.431 78.894 C 80.431 81.814 79.560 82.625 76.848 83.156 C 73.580 83.796 73.595 83.808 77.461 83.656 C 80.771 83.526 81.534 83.090 82.111 81.000 L 82.801 78.500 82.900 81.179 C 83.054 85.320 80.838 86.849 75.546 86.252 C 71.609 85.808 70.984 85.992 70.882 87.620 C 70.817 88.654 70.459 88.150 70.087 86.500 C 69.716 84.850 69.431 108.250 69.456 138.500 L 69.500 193.500 74.475 193.814 C 77.211 193.987 79.952 194.545 80.567 195.056 C 81.340 195.697 81.867 208.688 82.273 237.140 C 82.736 269.641 83.137 278.471 84.180 279.132 C 85.180 279.767 85.076 279.973 83.750 279.985 C 82.351 279.997 81.965 279.047 81.825 275.250 L 81.651 270.500 81.257 274.964 C 80.751 280.708 82.489 282.169 88.795 281.304 C 91.821 280.890 93.099 281.030 92.667 281.729 C 92.312 282.304 92.663 283.305 93.447 283.956 C 94.230 284.606 95.161 286.457 95.515 288.069 C 96.091 290.689 96.566 291.000 99.996 291.000 C 102.130 291.000 104.057 290.445 104.338 289.750 C 104.628 289.030 104.876 289.272 104.921 290.323 C 104.990 291.912 104.268 292.111 99.284 291.880 C 93.166 291.597 93.121 292.426 99.202 293.388 C 105.736 294.422 106.000 293.999 106.000 282.475 C 106.000 271.111 106.422 269.094 108.857 268.805 C 109.761 268.698 109.286 268.558 107.803 268.495 L 105.106 268.379 105.028 235.786 C 104.940 198.905 104.711 200.000 112.504 200.000 C 117.619 200.000 117.806 199.641 117.940 189.567 C 117.991 185.754 118.220 182.446 118.451 182.216 C 118.681 181.986 121.261 181.506 124.185 181.149 L 129.500 180.500 129.674 166.670 C 129.769 159.063 130.093 152.201 130.392 151.420 C 130.750 150.488 132.466 150.000 135.387 150.000 C 143.373 150.000 143.000 149.063 143.000 169.107 L 143.000 187.000 148.500 187.000 C 153.048 187.000 154.011 186.697 154.061 185.250 C 154.095 184.288 154.122 175.625 154.121 166.000 C 154.121 156.375 154.431 146.250 154.810 143.500 L 155.500 138.500 161.000 138.000 L 166.500 137.500 167.000 129.000 L 167.500 120.500 173.256 120.200 C 178.480 119.928 179.091 120.112 179.876 122.200 C 180.351 123.465 180.670 135.438 180.585 148.806 C 180.471 166.575 180.751 173.378 181.623 174.102 C 183.166 175.383 190.962 174.933 191.122 173.554 C 191.189 172.975 191.527 166.200 191.872 158.500 L 192.500 144.500 196.405 144.180 C 198.552 144.005 201.365 144.126 202.655 144.449 L 205.000 145.038 205.015 164.769 C 205.024 175.621 205.361 185.019 205.765 185.653 C 206.468 186.755 210.526 187.472 214.250 187.151 C 215.824 187.015 216.002 185.615 216.015 173.250 C 216.024 165.688 216.375 158.959 216.795 158.298 C 217.676 156.911 239.335 156.004 240.632 157.299 C 241.072 157.739 241.673 161.789 241.966 166.299 L 242.500 174.500 247.689 175.022 C 250.542 175.309 253.139 175.806 253.459 176.125 C 253.778 176.445 254.323 180.373 254.668 184.853 L 255.296 193.000 260.009 193.000 L 264.721 193.000 265.316 187.976 C 266.101 181.349 266.404 180.997 271.309 181.015 C 277.001 181.036 277.763 181.734 278.547 187.640 L 279.224 192.743 284.717 193.310 C 287.738 193.622 290.501 194.167 290.855 194.522 C 292.002 195.668 291.608 268.499 290.455 268.500 C 289.821 268.500 289.684 269.485 290.105 271.000 L 290.801 273.500 291.098 271.000 C 291.262 269.625 291.644 273.450 291.948 279.500 L 292.500 290.500 297.250 290.805 L 302.000 291.110 302.015 287.305 C 302.036 282.049 302.780 281.335 308.432 281.140 C 311.144 281.047 313.592 280.741 313.871 280.462 C 314.151 280.183 314.539 261.177 314.734 238.227 C 314.929 215.277 315.279 195.938 315.513 195.250 C 315.784 194.452 317.937 194.000 321.469 194.000 L 327.000 194.000 327.250 152.750 C 327.388 130.063 327.394 108.245 327.264 104.266 C 327.002 96.258 326.759 96.527 335.000 95.680 C 338.358 95.335 338.332 95.314 334.372 95.160 C 329.436 94.969 328.254 93.764 327.825 88.487 C 327.627 86.065 327.009 84.539 326.250 84.600 C 325.563 84.655 325.450 84.768 326.000 84.850 C 326.550 84.933 327.000 85.361 327.000 85.803 C 327.000 86.792 316.371 85.708 315.284 84.608 C 314.853 84.171 316.750 84.138 319.500 84.535 C 322.250 84.932 324.151 84.887 323.724 84.436 C 323.298 83.984 321.948 83.471 320.724 83.296 C 316.018 82.621 316.000 82.571 316.000 70.531 C 316.000 64.189 315.651 59.000 315.224 59.000 C 314.797 59.000 314.533 60.913 314.638 63.250 C 314.742 65.588 314.614 66.286 314.353 64.802 C 313.938 62.451 313.275 62.017 309.189 61.426 C 303.576 60.614 301.751 59.359 302.545 56.858 C 303.536 53.735 299.412 49.003 295.682 48.985 C 293.932 48.976 291.825 48.533 291.000 48.000 C 288.900 46.643 298.506 46.665 301.043 48.023 C 302.586 48.849 302.842 48.752 302.371 47.523 C 301.976 46.494 300.426 46.000 297.593 46.000 C 292.385 46.000 291.036 44.706 290.868 39.550 L 290.737 35.500 290.000 39.000 C 289.533 41.218 289.215 41.698 289.132 40.309 C 289.059 39.104 288.649 37.901 288.219 37.635 C 287.790 37.370 282.952 36.859 277.469 36.499 C 262.917 35.544 262.725 34.826 277.000 34.735 L 289.500 34.656 278.000 34.078 L 266.500 33.500 265.913 28.000 L 265.326 22.500 265.003 27.000 C 264.735 30.726 264.612 30.965 264.287 28.387 C 263.906 25.371 263.703 25.254 257.800 24.637 C 254.449 24.287 249.549 24.000 246.912 24.000 C 244.275 24.000 241.797 23.480 241.404 22.844 C 240.871 21.983 243.725 21.826 252.595 22.231 C 260.215 22.578 262.520 22.490 259.000 21.986 C 255.975 21.552 251.146 21.153 248.269 21.099 C 243.435 21.008 242.984 20.791 242.331 18.250 L 241.624 15.500 240.912 18.000 C 240.333 20.030 240.181 19.701 240.100 16.250 L 240.000 12.000 200.082 12.000 C 178.127 12.000 159.452 12.273 158.582 12.607 C 157.587 12.989 156.942 14.566 156.843 16.857 C 156.704 20.087 156.608 19.934 156.000 15.500 C 155.387 11.029 155.298 10.888 155.157 14.168 "/></g>
<g fill="#FCF0E1FD" stroke="#FCF0E1FD">
<path d="M 167.490 121.250 C 167.243 121.938 166.920 125.875 166.771 130.000 L 166.500 137.500 161.000 138.000 L 155.500 138.500 154.810 143.500 C 154.431 146.250 154.121 156.375 154.121 166.000 C 154.122 175.625 154.095 184.288 154.061 185.250 C 154.011 186.697 153.048 187.000 148.500 187.000 L 143.000 187.000 143.000 169.107 C 143.000 149.063 143.373 150.000 135.387 150.000 C 132.466 150.000 130.750 150.488 130.392 151.420 C 130.093 152.201 129.769 159.063 129.674 166.670 L 129.500 180.500 124.185 181.149 C 121.261 181.506 118.681 181.986 118.451 182.216 C 118.220 182.446 117.991 185.754 117.940 189.567 C 117.806 199.641 117.619 200.000 112.504 200.000 C 104.782 200.000 105.000 198.980 105.000 235.071 C 105.000 259.889 105.278 267.025 106.250 267.111 C 106.938 267.172 108.563 267.133 109.862 267.024 C 111.343 266.901 111.974 267.233 111.553 267.914 C 111.128 268.602 111.911 268.974 113.691 268.930 C 116.162 268.868 116.259 268.756 114.500 268.000 C 112.549 267.162 112.552 267.139 114.628 267.070 C 117.790 266.966 118.805 268.896 118.744 274.895 L 118.690 280.290 124.595 280.395 L 130.500 280.500 130.396 285.975 L 130.292 291.450 135.537 291.599 C 141.891 291.779 142.981 292.357 142.249 295.157 C 141.862 296.634 142.049 297.087 142.842 296.597 C 143.655 296.095 144.000 297.243 144.000 300.441 L 144.000 305.000 161.393 305.000 C 180.745 305.000 180.000 304.715 180.000 312.113 C 180.000 316.463 181.078 317.320 186.696 317.433 C 188.923 317.478 190.000 317.987 190.012 319.000 C 190.029 320.333 190.144 320.333 191.047 319.000 C 191.780 317.918 192.008 319.190 191.865 323.569 L 191.666 329.638 197.833 329.890 L 204.000 330.141 204.000 324.630 C 204.000 321.598 204.439 318.847 204.976 318.515 C 205.513 318.183 208.172 317.648 210.886 317.327 L 215.819 316.743 216.382 312.121 C 216.692 309.580 217.032 306.938 217.139 306.250 C 217.286 305.304 221.611 305.004 234.917 305.015 C 247.761 305.026 252.096 305.321 251.000 306.110 C 249.752 307.007 249.808 307.089 251.332 306.594 C 252.339 306.267 253.318 306.000 253.506 306.000 C 253.695 306.000 253.663 303.091 253.435 299.535 C 253.087 294.112 253.260 293.163 254.510 293.642 C 255.330 293.957 256.000 293.682 256.000 293.031 C 256.000 292.264 257.506 291.942 260.287 292.113 L 264.574 292.376 264.870 287.438 C 265.032 284.722 265.581 282.349 266.089 282.165 C 266.597 281.980 266.737 281.383 266.399 280.837 C 266.016 280.217 267.805 279.939 271.168 280.094 L 276.551 280.344 276.861 275.922 C 277.032 273.490 277.583 271.350 278.086 271.167 C 278.589 270.983 279.000 270.175 279.000 269.371 C 279.000 268.248 279.794 268.058 282.422 268.551 C 284.304 268.904 287.152 268.906 288.751 268.555 L 291.658 267.916 291.579 231.541 C 291.535 211.535 291.210 194.876 290.855 194.522 C 290.501 194.167 287.738 193.622 284.717 193.310 L 279.224 192.743 278.547 187.640 C 277.763 181.734 277.001 181.036 271.309 181.015 C 266.404 180.997 266.101 181.349 265.316 187.976 L 264.721 193.000 260.009 193.000 L 255.296 193.000 254.668 184.853 C 254.323 180.373 253.778 176.445 253.459 176.125 C 253.139 175.806 250.542 175.309 247.689 175.022 L 242.500 174.500 241.966 166.299 C 241.673 161.789 241.072 157.739 240.632 157.299 C 239.335 156.004 217.676 156.911 216.795 158.298 C 216.375 158.959 216.024 165.688 216.015 173.250 C 216.002 185.615 215.824 187.015 214.250 187.151 C 210.526 187.472 206.468 186.755 205.765 185.653 C 205.361 185.019 205.024 175.621 205.015 164.769 L 205.000 145.038 202.655 144.449 C 201.365 144.126 198.552 144.005 196.405 144.180 L 192.500 144.500 191.872 158.500 C 191.527 166.200 191.189 172.971 191.122 173.546 C 190.987 174.704 184.783 175.383 182.103 174.533 C 180.545 174.038 180.410 171.802 180.571 149.245 C 180.669 135.635 180.366 123.488 179.899 122.250 C 179.158 120.289 178.337 120.000 173.493 120.000 C 169.954 120.000 167.775 120.454 167.490 121.250 M 216.000 280.500 L 216.000 292.000 198.561 292.000 L 181.123 292.000 180.450 287.517 C 179.935 284.081 180.175 275.621 180.969 269.250 C 180.986 269.113 188.875 269.000 198.500 269.000 L 216.000 269.000 216.000 280.500 M 154.750 206.527 C 155.661 206.826 156.000 210.308 156.000 219.362 C 156.000 229.769 155.743 231.885 154.418 232.393 C 151.772 233.408 133.999 233.070 131.934 231.965 C 130.183 231.028 130.000 229.767 130.000 218.631 C 130.000 211.868 130.196 206.138 130.435 205.899 C 130.959 205.375 152.972 205.944 154.750 206.527 M 266.393 207.582 C 267.411 210.234 267.069 229.003 265.965 231.066 C 265.039 232.795 263.794 232.998 254.215 232.985 C 248.322 232.976 242.942 232.615 242.261 232.182 C 240.866 231.296 240.081 209.296 241.369 207.211 C 241.887 206.373 245.765 206.000 253.952 206.000 C 263.821 206.000 265.887 206.263 266.393 207.582 "/></g>
<g fill="#A02835FD" stroke="#A02835FD">
<path d="M 131.329 307.920 C 125.734 308.239 120.803 308.856 120.370 309.292 C 119.937 309.728 119.339 312.203 119.041 314.792 L 118.500 319.500 113.834 319.500 C 111.268 319.500 108.878 319.790 108.523 320.145 C 108.168 320.499 107.617 323.312 107.299 326.395 L 106.720 332.000 96.610 332.032 C 86.630 332.063 83.000 333.084 83.000 335.860 C 83.000 336.707 112.742 337.000 198.570 337.000 L 314.139 337.000 313.820 334.750 C 313.514 332.600 312.990 332.478 302.000 332.000 L 290.500 331.500 290.226 328.500 C 289.581 321.446 289.366 321.190 283.499 320.457 C 278.803 319.870 277.988 319.458 277.919 317.635 C 277.699 311.863 277.342 309.942 276.294 308.894 C 275.516 308.116 266.040 307.593 246.576 307.252 L 218.000 306.751 218.000 311.753 C 218.000 317.676 216.981 318.754 210.980 319.181 L 206.500 319.500 205.843 324.884 C 205.482 327.844 204.582 330.650 203.843 331.118 C 201.826 332.397 193.571 332.171 192.200 330.800 C 191.540 330.140 190.994 328.453 190.986 327.050 C 190.955 321.287 190.079 320.199 184.900 319.486 C 179.628 318.761 179.337 318.359 178.770 311.000 L 178.500 307.500 160.000 307.420 C 149.825 307.376 136.923 307.601 131.329 307.920 "/></g>
<g fill="#F4E05CFD" stroke="#F4E05CFD">
<path d="M 329.750 98.689 C 328.115 99.117 327.999 102.218 327.985 145.823 C 327.976 171.495 327.622 193.047 327.197 193.715 C 326.773 194.383 324.080 195.433 321.213 196.048 C 316.418 197.076 316.000 197.393 316.000 200.001 C 316.000 201.561 315.725 203.553 315.389 204.430 C 314.941 205.596 315.209 205.857 316.389 205.404 C 317.275 205.064 318.000 205.284 318.000 205.893 C 318.000 206.555 320.011 207.000 323.000 207.000 C 325.750 207.000 328.000 206.550 328.000 206.000 C 328.000 205.450 330.475 205.000 333.500 205.000 L 339.000 205.000 339.000 187.000 L 339.000 169.000 343.750 168.985 C 349.973 168.965 351.222 168.066 350.824 163.895 C 350.536 160.880 350.108 160.434 347.000 159.910 C 345.075 159.586 342.488 158.971 341.250 158.544 L 339.000 157.767 339.000 128.859 L 339.000 99.950 336.435 98.975 C 333.773 97.963 332.703 97.917 329.750 98.689 "/></g>
<g fill="#F4E05CFD" stroke="#F4E05CFD">
<path d="M 60.131 99.342 C 59.518 100.080 58.955 103.446 58.878 106.821 C 58.802 110.196 58.348 112.715 57.870 112.420 C 56.575 111.619 56.780 146.721 58.085 149.159 C 60.428 153.537 56.240 160.000 51.059 160.000 C 47.754 160.000 47.323 160.436 46.581 164.529 C 45.940 168.060 47.170 168.964 52.641 168.985 L 56.781 169.000 57.399 176.750 C 57.738 181.013 58.289 189.113 58.622 194.750 L 59.227 205.000 63.363 205.076 C 65.639 205.118 70.538 205.354 74.250 205.601 L 81.000 206.050 81.000 201.525 C 81.000 199.036 80.663 197.076 80.250 197.168 C 78.707 197.515 72.438 195.812 70.793 194.600 C 69.228 193.447 69.075 189.364 68.952 145.671 L 68.818 98.000 65.032 98.000 C 62.949 98.000 60.744 98.604 60.131 99.342 "/></g>
<g fill="#595959FD" stroke="#595959FD">
<path d="M 54.691 109.750 C 54.246 110.438 52.621 111.000 51.080 111.000 C 48.450 111.000 48.241 111.318 47.664 116.190 C 46.838 123.167 45.324 124.579 40.098 123.253 L 36.048 122.225 35.418 125.587 C 35.071 127.437 35.285 130.378 35.893 132.124 C 36.502 133.870 37.000 138.615 37.000 142.669 C 37.000 148.682 36.567 150.727 34.649 153.770 C 32.568 157.073 32.277 158.834 32.109 169.153 L 31.919 180.806 35.995 179.890 C 44.385 178.005 47.971 180.074 47.260 186.388 C 46.713 191.238 46.890 191.446 52.404 192.443 L 56.308 193.148 55.685 184.334 C 55.016 174.850 53.953 173.000 49.169 173.000 C 47.822 173.000 46.123 172.213 45.392 171.250 C 43.634 168.934 43.516 157.045 45.250 156.885 C 45.938 156.821 46.950 156.665 47.500 156.537 C 48.050 156.409 50.196 156.236 52.268 156.152 L 56.036 156.000 55.768 132.250 C 55.621 119.188 55.136 109.063 54.691 109.750 "/></g>
<g fill="#595959FD" stroke="#595959FD">
<path d="M 342.000 129.875 C 342.000 140.806 341.719 151.156 341.375 152.875 L 340.750 156.000 345.675 156.000 C 348.384 156.000 351.140 156.540 351.800 157.200 C 352.477 157.877 353.000 161.121 353.000 164.643 C 353.000 169.961 352.671 171.117 350.777 172.443 C 349.555 173.299 347.589 174.000 346.409 174.000 C 344.459 174.000 344.216 174.662 343.750 181.250 C 343.468 185.238 342.917 189.271 342.526 190.212 C 341.920 191.672 342.378 191.893 345.627 191.712 C 349.301 191.508 349.471 191.337 350.319 187.000 C 351.581 180.547 352.510 179.782 358.612 180.168 L 363.843 180.500 364.172 169.000 C 364.412 160.592 364.164 157.285 363.250 156.700 C 362.333 156.114 362.000 151.517 362.000 139.450 L 362.000 123.000 357.200 123.000 C 351.425 123.000 350.000 121.788 350.000 116.873 C 350.000 113.691 349.539 112.916 346.846 111.573 C 345.112 110.708 343.312 110.000 342.846 110.000 C 342.381 110.000 342.000 118.944 342.000 129.875 "/></g>
<g fill="#D0AD48FD" stroke="#D0AD48FD">
<path d="M 47.615 222.873 C 46.527 224.075 45.904 226.493 45.875 229.623 C 45.851 232.305 45.636 257.563 45.397 285.750 L 44.964 337.000 48.982 337.000 L 53.000 337.000 53.000 304.500 C 53.000 286.625 53.370 272.000 53.822 272.000 C 54.274 272.000 54.440 286.625 54.190 304.500 C 53.857 328.299 54.039 337.000 54.868 337.000 C 55.693 337.000 56.032 324.321 56.118 290.250 C 56.184 264.538 56.169 243.117 56.085 242.650 C 56.002 242.182 55.658 237.612 55.322 232.495 C 54.759 223.925 54.521 223.103 52.308 222.095 C 49.290 220.719 49.613 220.666 47.615 222.873 "/></g>
<g fill="#FCF0E1FD" stroke="#FCF0E1FD">
<path d="M 69.377 209.736 C 69.725 212.269 69.696 214.029 69.314 213.647 C 68.931 213.265 68.592 214.425 68.559 216.226 L 68.500 219.500 62.000 219.567 C 58.425 219.604 55.500 219.755 55.500 219.902 C 55.500 220.050 53.138 220.100 50.250 220.013 C 46.331 219.895 45.000 220.212 45.000 221.261 C 45.000 223.600 46.241 224.092 48.039 222.465 C 49.437 221.199 50.210 221.138 52.370 222.123 C 54.738 223.201 55.007 223.879 55.074 228.911 C 55.115 231.985 55.452 236.492 55.824 238.927 L 56.500 243.354 62.711 243.550 C 66.126 243.657 68.639 244.028 68.294 244.373 C 67.949 244.718 68.167 245.000 68.779 245.000 C 69.396 245.000 70.026 247.114 70.195 249.750 L 70.500 254.500 76.250 254.800 L 82.000 255.100 82.000 231.019 C 82.000 212.655 81.703 206.833 80.750 206.498 C 80.063 206.256 77.080 205.849 74.123 205.594 L 68.746 205.130 69.377 209.736 "/></g>
<g fill="#FCF0E1FD" stroke="#FCF0E1FD">
<path d="M 315.608 205.826 C 315.224 206.446 314.655 248.578 314.949 254.500 C 314.978 255.068 317.561 255.431 320.923 255.340 C 324.181 255.252 326.581 254.915 326.257 254.590 C 325.932 254.266 326.225 254.000 326.907 254.000 C 327.771 254.000 328.069 252.402 327.889 248.750 L 327.630 243.500 333.315 243.806 L 339.000 244.113 339.000 232.106 L 339.000 220.100 333.250 219.800 L 327.500 219.500 327.500 213.500 L 327.500 207.500 322.750 207.195 C 320.138 207.028 318.000 206.465 318.000 205.945 C 318.000 204.781 316.305 204.697 315.608 205.826 "/></g>
<g fill="#CD7D85FD" stroke="#CD7D85FD">
<path d="M 181.567 269.891 C 180.464 271.677 179.742 282.791 180.431 287.386 L 181.123 292.000 198.594 292.000 L 216.066 292.000 215.783 280.750 L 215.500 269.500 198.824 269.226 C 189.188 269.068 181.903 269.349 181.567 269.891 "/></g>
<g fill="#D5DCFCFD" stroke="#D5DCFCFD">
<path d="M 130.435 205.899 C 130.196 206.138 130.000 211.868 130.000 218.631 C 130.000 229.767 130.183 231.028 131.934 231.965 C 133.999 233.070 151.772 233.408 154.418 232.393 C 155.743 231.885 156.000 229.769 156.000 219.362 C 156.000 210.308 155.661 206.826 154.750 206.527 C 152.972 205.944 130.959 205.375 130.435 205.899 M 145.046 206.986 L 154.593 207.000 154.859 218.436 L 155.125 229.873 143.812 230.186 C 137.591 230.359 132.275 230.351 132.000 230.169 C 131.725 229.988 131.348 224.412 131.163 217.780 L 130.826 205.721 133.163 206.347 C 134.448 206.691 139.796 206.979 145.046 206.986 "/></g>
<g fill="#4980F5FD" stroke="#4980F5FD">
<path d="M 137.000 209.846 C 135.625 210.036 133.938 210.654 133.250 211.218 C 131.591 212.581 131.550 227.150 133.200 228.800 C 134.453 230.053 149.489 230.517 152.418 229.393 C 153.684 228.907 154.000 227.135 154.000 220.515 C 154.000 214.976 153.573 211.891 152.708 211.173 C 151.380 210.070 141.445 209.231 137.000 209.846 "/></g>
<g fill="#4980F5FD" stroke="#4980F5FD">
<path d="M 244.233 211.167 C 243.456 211.944 243.000 215.431 243.000 220.593 C 243.000 227.141 243.318 228.908 244.582 229.393 C 245.452 229.727 250.146 230.000 255.014 230.000 C 265.295 230.000 264.773 230.626 264.608 218.500 L 264.500 210.500 254.983 210.217 C 248.436 210.022 245.082 210.318 244.233 211.167 "/></g>
<g fill="#A8ACADFD" stroke="#A8ACADFD">
<path d="M 20.712 158.622 C 19.757 159.576 19.795 192.966 20.750 193.122 C 21.163 193.190 23.608 193.357 26.184 193.494 L 30.868 193.743 31.496 187.621 C 31.842 184.255 31.984 176.325 31.812 170.000 L 31.500 158.500 26.462 158.205 C 23.690 158.043 21.103 158.230 20.712 158.622 "/></g>
<g fill="#A8ACADFD" stroke="#A8ACADFD">
<path d="M 365.000 175.339 C 365.000 192.596 365.024 192.789 367.250 193.344 C 368.488 193.652 370.400 193.735 371.500 193.529 C 372.600 193.322 374.073 193.119 374.774 193.077 C 375.764 193.017 375.986 189.166 375.774 175.750 L 375.500 158.500 370.250 158.198 L 365.000 157.895 365.000 175.339 "/></g>
<g fill="#CD7D85FD" stroke="#CD7D85FD">
<path d="M 152.500 22.231 C 150.300 22.634 145.125 22.925 141.000 22.878 C 136.875 22.831 132.938 22.840 132.250 22.897 C 131.417 22.965 131.000 24.800 131.000 28.393 C 131.000 32.388 130.590 33.943 129.418 34.393 C 128.548 34.727 123.179 35.000 117.486 35.000 C 107.975 35.000 107.083 35.164 106.493 37.022 C 106.140 38.135 106.158 40.441 106.532 42.147 C 107.337 45.811 106.064 46.962 101.184 46.985 C 95.484 47.011 94.000 48.443 94.000 53.919 C 94.000 59.225 93.071 59.957 86.309 59.986 C 84.554 59.994 82.854 60.427 82.532 60.949 C 81.573 62.499 80.647 78.570 81.565 77.712 C 82.029 77.279 82.454 74.181 82.510 70.829 C 82.595 65.741 82.993 64.424 84.917 62.866 C 86.184 61.840 88.467 61.000 89.988 61.000 C 93.500 61.000 94.880 59.312 95.808 53.880 C 96.519 49.711 96.711 49.519 100.880 48.808 C 106.769 47.802 108.000 46.530 108.000 41.445 C 108.000 36.138 108.474 35.946 120.785 36.262 C 131.327 36.532 131.960 36.143 131.985 29.375 C 131.999 25.560 132.234 25.203 135.125 24.625 C 136.844 24.281 141.737 24.000 145.998 24.000 C 150.796 24.000 154.271 23.524 155.123 22.750 C 156.237 21.739 155.735 21.640 152.500 22.231 "/></g>
<g fill="#CD7D85FD" stroke="#CD7D85FD">
<path d="M 156.684 10.649 C 156.308 11.026 156.072 13.396 156.160 15.917 C 156.302 19.974 156.368 20.099 156.741 17.009 C 156.973 15.089 157.689 13.183 158.331 12.774 C 158.974 12.365 177.613 12.024 199.750 12.015 L 240.000 12.000 240.168 16.250 L 240.336 20.500 240.733 16.680 C 240.951 14.579 240.660 12.296 240.087 11.605 C 239.287 10.641 229.557 10.305 198.207 10.158 C 175.745 10.052 157.060 10.273 156.684 10.649 "/></g>
<g fill="#D5DCFCFD" stroke="#D5DCFCFD">
<path d="M 265.000 218.936 L 265.000 229.871 254.479 230.186 C 248.692 230.359 243.517 230.350 242.979 230.167 C 242.432 229.981 241.993 225.565 241.985 220.167 C 241.976 214.436 241.622 211.048 241.116 211.847 C 239.929 213.719 241.031 231.334 242.390 232.235 C 243.001 232.639 248.322 232.976 254.215 232.985 C 263.794 232.998 265.039 232.795 265.965 231.066 C 267.312 228.549 267.343 208.000 266.000 208.000 C 265.394 208.000 265.000 212.312 265.000 218.936 "/></g>
<g fill="#F8896CFD" stroke="#F8896CFD">
<path d="M 351.971 163.500 L 351.500 169.500 346.000 170.000 L 340.500 170.500 340.500 182.500 C 340.500 193.458 340.619 194.240 341.871 191.500 C 342.626 189.850 343.472 185.238 343.753 181.250 C 344.225 174.541 344.432 174.000 346.521 174.000 C 347.762 174.000 349.753 173.211 350.943 172.247 C 352.837 170.714 353.066 169.678 352.776 163.997 L 352.443 157.500 351.971 163.500 "/></g>
<g fill="#F8896CFD" stroke="#F8896CFD">
<path d="M 340.000 132.531 L 340.000 157.000 345.750 156.815 L 351.500 156.630 346.500 156.272 L 341.500 155.914 341.766 138.707 C 341.912 129.243 342.137 118.691 342.266 115.259 C 342.425 111.004 342.102 108.865 341.250 108.540 C 340.271 108.166 340.000 113.369 340.000 132.531 "/></g>
<g fill="#F8896CFD" stroke="#F8896CFD">
<path d="M 56.230 290.750 L 56.461 337.500 56.980 290.750 C 57.266 265.037 57.163 243.999 56.750 244.000 C 56.338 244.000 56.104 265.038 56.230 290.750 "/></g>
<g fill="#FCF0E1FD" stroke="#FCF0E1FD">
<path d="M 131.436 211.492 C 130.641 215.726 131.243 229.577 132.266 230.599 C 132.670 231.003 133.308 231.026 133.683 230.650 C 134.059 230.274 133.834 229.434 133.183 228.783 C 131.363 226.963 131.621 212.559 133.502 210.998 C 135.453 209.379 150.605 209.427 152.570 211.058 C 154.465 212.631 154.622 228.582 152.750 229.338 C 152.037 229.625 152.292 229.876 153.344 229.921 C 155.040 229.994 155.160 229.196 154.844 219.962 C 154.585 212.406 154.129 209.690 153.000 208.978 C 152.175 208.457 147.133 208.024 141.795 208.015 L 132.091 208.000 131.436 211.492 "/></g>
<g fill="#F8896CFD" stroke="#F8896CFD">
<path d="M 44.032 168.550 C 44.101 170.619 46.850 173.000 49.169 173.000 C 54.735 173.000 55.304 174.479 55.754 190.111 C 55.982 198.025 56.356 204.688 56.584 204.917 C 57.529 205.864 56.925 173.729 55.965 171.934 C 55.190 170.486 53.858 170.000 50.665 170.000 C 48.319 170.000 45.860 169.460 45.200 168.800 C 44.540 168.140 44.014 168.028 44.032 168.550 "/></g>
<g fill="#F8896CFD" stroke="#F8896CFD">
<path d="M 53.116 304.750 C 53.180 322.763 53.378 336.825 53.557 336.000 C 54.328 332.447 54.590 272.000 53.834 272.000 C 53.375 272.000 53.052 286.738 53.116 304.750 "/></g>
<g fill="#FCF0E1FD" stroke="#FCF0E1FD">
<path d="M 243.750 208.689 C 242.226 209.088 242.000 210.479 242.000 219.466 C 242.000 227.717 242.301 229.901 243.500 230.362 C 244.325 230.678 245.000 230.501 245.000 229.969 C 245.000 229.436 244.550 229.000 244.000 229.000 C 242.332 229.000 242.735 212.465 244.437 211.052 C 245.394 210.258 249.066 209.967 255.439 210.180 C 262.596 210.419 265.004 210.185 265.002 209.250 C 265.001 208.328 262.444 208.030 255.250 208.116 C 249.888 208.180 244.713 208.438 243.750 208.689 "/></g>
<g fill="#FCF0E1FD" stroke="#FCF0E1FD">
<path d="M 44.794 157.557 C 43.765 159.172 44.083 167.337 45.230 168.750 C 46.469 170.277 48.000 170.382 48.000 168.941 C 48.000 168.359 47.515 168.182 46.921 168.549 C 46.186 169.003 46.031 168.028 46.434 165.491 C 47.224 160.525 47.647 160.000 50.868 160.000 C 52.380 160.000 54.491 159.339 55.559 158.532 C 57.348 157.179 57.097 157.061 52.357 157.032 C 48.413 157.007 47.025 157.408 46.405 158.750 C 45.676 160.326 45.589 160.301 45.532 158.500 C 45.496 157.400 45.165 156.976 44.794 157.557 "/></g>
<g fill="#FCF0E1FD" stroke="#FCF0E1FD">
<path d="M 58.395 96.717 C 59.844 97.088 59.978 97.396 58.965 98.022 C 57.344 99.024 56.330 110.730 57.742 112.142 C 58.400 112.800 58.783 111.032 58.876 106.910 C 58.954 103.486 59.518 100.080 60.131 99.342 C 60.744 98.604 62.990 98.000 65.122 98.000 C 67.255 98.000 69.000 97.550 69.000 97.000 C 69.000 96.428 66.327 96.050 62.750 96.116 C 59.313 96.180 57.353 96.450 58.395 96.717 "/></g>
<g fill="#F8896CFD" stroke="#F8896CFD">
<path d="M 186.500 10.002 C 196.400 10.365 205.400 10.316 206.500 9.894 C 207.600 9.472 199.500 9.175 188.500 9.235 L 168.500 9.343 186.500 10.002 "/></g>
<g fill="#CD7D85FD" stroke="#CD7D85FD">
<path d="M 290.809 280.046 L 291.118 292.000 297.059 292.000 L 303.000 292.000 302.825 287.250 L 302.651 282.500 302.265 286.802 L 301.880 291.105 297.190 290.802 L 292.500 290.500 292.212 280.012 C 292.054 274.244 291.604 269.202 291.212 268.809 C 290.821 268.415 290.639 273.472 290.809 280.046 "/></g>
<g fill="#FCF0E1FD" stroke="#FCF0E1FD">
<path d="M 57.118 193.750 C 57.045 201.329 57.381 206.000 58.000 206.000 C 59.165 206.000 59.165 189.079 58.000 184.500 C 57.513 182.588 57.194 185.941 57.118 193.750 "/></g>
<g fill="#CD7D85FD" stroke="#CD7D85FD">
<path d="M 241.403 22.842 C 241.796 23.479 244.275 24.000 246.912 24.000 C 249.549 24.000 254.449 24.287 257.800 24.637 C 263.703 25.254 263.906 25.371 264.287 28.387 C 264.607 30.921 264.710 30.709 264.840 27.250 L 265.000 23.000 255.250 22.986 C 249.888 22.979 244.417 22.683 243.094 22.329 C 241.406 21.877 240.901 22.031 241.403 22.842 "/></g>
<g fill="#CD7D85FD" stroke="#CD7D85FD">
<path d="M 265.651 35.250 C 265.908 35.663 268.679 36.045 271.809 36.099 C 274.939 36.153 279.956 36.491 282.959 36.849 C 287.672 37.411 288.512 37.841 289.109 40.000 C 289.749 42.312 289.808 42.257 289.900 39.269 C 289.980 36.693 289.544 35.936 287.750 35.534 C 283.984 34.690 265.153 34.448 265.651 35.250 "/></g>
<g fill="#FCF0E1FD" stroke="#FCF0E1FD">
<path d="M 58.247 135.601 C 58.111 141.706 57.514 148.095 56.921 149.798 C 56.191 151.889 56.166 153.474 56.842 154.683 C 57.745 156.295 57.896 156.226 58.380 153.986 C 58.675 152.619 58.821 145.425 58.705 138.000 C 58.494 124.529 58.493 124.524 58.247 135.601 "/></g>
<g fill="#A8ACADFD" stroke="#A8ACADFD">
<path d="M 327.654 219.250 C 327.909 219.663 330.566 220.000 333.559 220.000 L 339.000 220.000 339.231 231.500 L 339.462 243.000 339.481 231.250 L 339.500 219.500 333.345 219.000 C 329.959 218.725 327.398 218.838 327.654 219.250 "/></g>
<g fill="#F8896CFD" stroke="#F8896CFD">
<path d="M 127.750 306.745 C 119.729 307.050 119.000 307.247 119.000 309.110 C 119.000 310.958 119.143 311.000 120.571 309.571 C 121.769 308.374 124.326 307.996 131.321 307.985 C 136.370 307.976 141.175 307.533 142.000 307.000 C 143.106 306.285 142.580 306.081 140.000 306.221 C 138.075 306.326 132.563 306.561 127.750 306.745 "/></g>
<g fill="#FCF0E1FD" stroke="#FCF0E1FD">
<path d="M 342.000 158.500 C 342.685 159.325 344.742 160.000 346.573 160.000 C 348.687 160.000 350.272 160.638 350.920 161.750 C 351.764 163.200 351.944 162.942 351.970 160.250 L 352.000 157.000 346.378 157.000 C 341.493 157.000 340.919 157.197 342.000 158.500 "/></g>
<g fill="#FCF0E1FD" stroke="#FCF0E1FD">
<path d="M 328.250 96.662 C 327.563 96.940 327.061 98.592 327.136 100.333 C 327.232 102.571 327.397 102.860 327.697 101.316 C 328.210 98.676 332.487 97.474 336.260 98.909 C 338.534 99.773 338.849 99.650 338.721 97.950 C 338.598 96.312 337.849 96.013 334.037 96.079 C 331.542 96.122 328.938 96.385 328.250 96.662 "/></g>
<g fill="#CD7D85FD" stroke="#CD7D85FD">
<path d="M 302.015 57.628 C 301.990 59.516 304.267 60.714 309.250 61.435 C 313.349 62.028 314.027 62.457 314.200 64.561 C 314.310 65.903 314.423 65.313 314.450 63.250 L 314.500 59.500 309.022 59.190 C 306.009 59.019 303.203 58.344 302.787 57.690 C 302.261 56.863 302.026 56.844 302.015 57.628 "/></g>
<g fill="#F8896CFD" stroke="#F8896CFD">
<path d="M 105.668 329.750 C 105.125 330.613 101.822 331.000 95.012 331.000 C 84.685 331.000 81.901 332.038 82.079 335.821 C 82.144 337.202 82.261 337.234 82.741 336.000 C 83.997 332.769 86.502 332.064 96.823 332.032 C 106.111 332.003 107.112 331.824 106.800 330.250 C 106.546 328.970 106.242 328.836 105.668 329.750 "/></g>
<g fill="#F8896CFD" stroke="#F8896CFD">
<path d="M 130.666 23.000 C 130.335 23.825 129.937 26.525 129.782 29.000 L 129.500 33.500 119.000 34.054 L 108.500 34.609 118.500 34.789 C 124.000 34.888 129.025 34.635 129.666 34.227 C 130.308 33.819 130.930 30.789 131.050 27.493 C 131.169 24.197 130.996 22.175 130.666 23.000 "/></g>
<g fill="#CD7D85FD" stroke="#CD7D85FD">
<path d="M 81.952 81.000 C 81.584 83.035 80.849 83.550 78.000 83.770 C 71.396 84.279 69.993 84.902 70.116 87.269 C 70.213 89.138 70.310 89.196 70.712 87.631 C 71.117 86.055 71.892 85.840 75.642 86.263 C 80.898 86.856 83.293 85.125 82.756 81.124 L 82.404 78.500 81.952 81.000 "/></g>
<g fill="#A8ACADFD" stroke="#A8ACADFD">
<path d="M 131.116 208.633 C 131.192 210.519 131.395 210.865 131.710 209.645 C 132.147 207.947 133.154 207.821 143.594 208.152 C 149.867 208.351 155.000 208.174 155.000 207.757 C 155.000 207.341 150.613 206.994 145.250 206.986 C 139.888 206.979 134.488 206.701 133.250 206.370 C 131.284 205.843 131.015 206.128 131.116 208.633 "/></g>
<g fill="#FCF0E1FD" stroke="#FCF0E1FD">
<path d="M 315.710 194.623 C 315.320 195.014 315.076 197.396 315.168 199.917 C 315.325 204.184 315.363 204.246 315.725 200.809 C 316.103 197.218 316.267 197.083 321.807 195.809 L 327.500 194.500 321.960 194.206 C 318.913 194.045 316.101 194.232 315.710 194.623 "/></g>
<g fill="#CD7D85FD" stroke="#CD7D85FD">
<path d="M 291.000 48.000 C 291.825 48.533 293.925 48.976 295.667 48.985 C 297.946 48.996 299.408 49.770 300.885 51.750 C 302.824 54.349 302.938 54.380 302.968 52.321 C 303.021 48.689 300.380 46.998 294.679 47.015 C 290.966 47.026 289.925 47.305 291.000 48.000 "/></g>
<g fill="#D0AD48FD" stroke="#D0AD48FD">
<path d="M 339.217 182.250 L 339.435 195.500 339.747 182.814 L 340.059 170.127 342.779 169.713 C 345.276 169.334 345.232 169.287 342.250 169.150 L 339.000 169.000 339.217 182.250 "/></g>
<g fill="#A8ACADFD" stroke="#A8ACADFD">
<path d="M 241.667 207.667 C 241.300 208.033 241.007 209.046 241.015 209.917 C 241.029 211.303 241.149 211.313 241.978 210.000 C 242.695 208.864 245.786 208.360 254.712 207.925 L 266.500 207.350 254.417 207.175 C 247.771 207.079 242.033 207.300 241.667 207.667 "/></g>
<g fill="#CD7D85FD" stroke="#CD7D85FD">
<path d="M 81.330 256.418 C 81.699 257.378 82.000 263.077 82.000 269.082 C 82.000 278.843 82.185 279.992 83.750 279.921 C 84.795 279.874 84.997 279.639 84.250 279.338 C 83.353 278.976 83.000 275.626 83.000 267.476 C 83.000 259.883 82.612 255.878 81.830 255.395 C 81.032 254.902 80.873 255.227 81.330 256.418 "/></g>
<g fill="#FCF0E1FD" stroke="#FCF0E1FD">
<path d="M 71.400 194.733 C 72.549 195.883 79.401 197.700 80.812 197.229 C 83.656 196.281 79.699 194.000 75.211 194.000 C 72.712 194.000 70.997 194.330 71.400 194.733 "/></g>
<g fill="#D5DCFCFD" stroke="#D5DCFCFD">
<path d="M 241.652 206.750 C 241.395 207.163 246.881 207.249 253.843 206.941 L 266.500 206.382 254.309 206.191 C 247.604 206.086 241.908 206.338 241.652 206.750 "/></g>
<g fill="#F8896CFD" stroke="#F8896CFD">
<path d="M 117.722 317.700 C 117.204 318.499 115.337 318.709 112.122 318.328 L 107.300 317.757 107.475 320.878 C 107.571 322.595 107.729 323.100 107.825 322.000 C 108.012 319.860 108.353 319.737 114.500 319.593 C 117.347 319.527 118.500 319.068 118.500 318.000 C 118.500 316.924 118.280 316.839 117.722 317.700 "/></g>
<g fill="#CD7D85FD" stroke="#CD7D85FD">
<path d="M 191.168 322.668 C 190.920 330.296 191.427 331.025 196.857 330.850 L 201.500 330.700 197.000 330.100 L 192.500 329.500 191.918 323.500 L 191.336 317.500 191.168 322.668 "/></g>
<g fill="#CD7D85FD" stroke="#CD7D85FD">
<path d="M 94.310 288.000 C 94.499 291.489 94.516 291.501 99.750 291.802 C 104.276 292.063 104.989 291.856 104.921 290.302 C 104.875 289.253 104.631 289.022 104.338 289.750 C 104.059 290.440 102.143 291.000 100.061 291.000 C 96.695 291.000 96.173 290.651 95.205 287.750 L 94.120 284.500 94.310 288.000 "/></g>
<g fill="#A8ACADFD" stroke="#A8ACADFD">
<path d="M 69.405 250.000 L 69.500 255.500 75.250 255.464 L 81.000 255.429 75.552 255.214 L 70.105 255.000 69.707 249.750 L 69.309 244.500 69.405 250.000 "/></g>
<g fill="#A8ACADFD" stroke="#A8ACADFD">
<path d="M 118.142 275.050 C 117.954 279.752 119.435 281.000 125.200 281.000 C 127.840 281.000 130.068 281.450 130.150 282.000 C 130.233 282.550 130.345 282.438 130.400 281.750 C 130.465 280.944 128.548 280.323 125.000 280.000 L 119.500 279.500 118.892 275.500 L 118.284 271.500 118.142 275.050 "/></g>
<g fill="#CD7D85FD" stroke="#CD7D85FD">
<path d="M 179.157 311.691 C 179.071 314.546 179.338 317.074 179.750 317.310 C 180.163 317.545 182.300 317.995 184.500 318.309 L 188.500 318.881 184.500 317.606 C 180.688 316.391 180.472 316.100 179.907 311.415 L 179.314 306.500 179.157 311.691 "/></g>
<g fill="#CD7D85FD" stroke="#CD7D85FD">
<path d="M 315.417 84.750 C 316.419 85.752 327.000 86.713 327.000 85.803 C 327.000 85.361 326.663 84.982 326.250 84.960 C 325.838 84.938 323.085 84.736 320.133 84.510 C 317.181 84.283 315.059 84.392 315.417 84.750 "/></g>
<g fill="#CD7D85FD" stroke="#CD7D85FD">
<path d="M 204.667 318.667 C 204.300 319.033 204.000 321.733 204.000 324.667 C 204.000 327.600 203.550 330.068 203.000 330.150 C 202.450 330.233 202.563 330.345 203.250 330.400 C 204.076 330.466 204.605 328.642 204.810 325.022 C 204.981 322.009 205.656 319.203 206.310 318.787 C 207.065 318.307 207.104 318.025 206.417 318.015 C 205.821 318.007 205.033 318.300 204.667 318.667 "/></g>
<g fill="#CD7D85FD" stroke="#CD7D85FD">
<path d="M 314.681 256.652 C 314.307 257.027 314.078 260.521 314.173 264.417 L 314.346 271.500 314.854 263.735 C 315.134 259.465 315.056 256.277 314.681 256.652 "/></g>
<g fill="#CD7D85FD" stroke="#CD7D85FD">
<path d="M 216.205 313.000 C 216.016 316.684 215.763 317.015 213.000 317.194 C 210.252 317.373 210.273 317.394 213.250 317.444 C 216.422 317.499 216.499 317.399 216.455 313.250 L 216.409 309.000 216.205 313.000 "/></g>
<g fill="#A8ACADFD" stroke="#A8ACADFD">
<path d="M 130.522 291.183 C 131.006 292.456 132.604 292.924 137.089 293.107 C 140.349 293.240 142.712 293.045 142.341 292.674 C 141.970 292.304 139.582 292.000 137.033 292.000 C 134.485 292.000 131.833 291.438 131.141 290.750 C 130.131 289.748 130.009 289.834 130.522 291.183 "/></g>
<g fill="#A8ACADFD" stroke="#A8ACADFD">
<path d="M 276.960 274.960 C 276.576 278.681 276.086 279.535 274.000 280.110 C 272.002 280.662 271.901 280.818 273.500 280.885 C 277.107 281.037 278.152 279.574 277.775 274.901 L 277.420 270.500 276.960 274.960 "/></g>
<g fill="#D0AD48FD" stroke="#D0AD48FD">
<path d="M 68.747 105.500 C 69.040 109.350 69.441 112.688 69.640 112.917 C 70.335 113.721 69.792 103.473 69.008 101.000 C 68.547 99.547 68.438 101.431 68.747 105.500 "/></g>
<g fill="#FCF0E1FD" stroke="#FCF0E1FD">
<path d="M 249.500 22.000 L 243.500 22.664 249.000 22.817 C 252.025 22.901 255.175 22.533 256.000 22.000 C 256.825 21.467 257.050 21.099 256.500 21.183 C 255.950 21.267 252.800 21.635 249.500 22.000 "/></g>
<g fill="#A8ACADFD" stroke="#A8ACADFD">
<path d="M 265.180 286.200 C 265.054 289.487 264.474 291.207 263.250 291.920 C 262.288 292.481 261.950 292.946 262.500 292.954 C 265.196 292.995 266.110 291.148 265.741 286.403 L 265.360 281.500 265.180 286.200 "/></g>
<g fill="#D0AD48FD" stroke="#D0AD48FD">
<path d="M 327.584 206.641 C 327.101 207.902 327.256 208.033 328.252 207.205 C 328.967 206.613 331.789 205.955 334.525 205.744 L 339.500 205.360 333.857 205.180 C 329.436 205.039 328.078 205.355 327.584 206.641 "/></g>
<g fill="#F8896CFD" stroke="#F8896CFD">
<path d="M 184.265 319.185 C 184.944 319.616 186.513 319.976 187.750 319.985 C 189.177 319.994 190.000 320.609 190.000 321.667 C 190.000 322.583 190.266 323.067 190.591 322.742 C 190.917 322.417 190.915 321.307 190.587 320.275 C 190.156 318.915 189.037 318.400 186.511 318.400 C 184.444 318.400 183.531 318.719 184.265 319.185 "/></g>
<g fill="#F8896CFD" stroke="#F8896CFD">
<path d="M 271.250 307.909 C 274.413 308.247 277.000 308.181 277.000 307.762 C 277.000 307.343 274.413 307.066 271.250 307.147 L 265.500 307.294 271.250 307.909 "/></g>
<g fill="#D0AD48FD" stroke="#D0AD48FD">
<path d="M 51.487 169.743 C 53.680 169.966 55.810 170.678 56.222 171.324 C 56.716 172.102 56.975 171.907 56.985 170.750 C 56.997 169.303 56.176 169.029 52.250 169.168 C 47.545 169.335 47.538 169.340 51.487 169.743 "/></g>
<g fill="#F8896CFD" stroke="#F8896CFD">
<path d="M 206.115 318.908 C 205.268 319.444 206.629 319.581 209.615 319.259 C 212.302 318.970 214.688 318.569 214.917 318.367 C 215.822 317.570 207.412 318.086 206.115 318.908 "/></g>
<g fill="#F8896CFD" stroke="#F8896CFD">
<path d="M 105.823 43.750 C 105.363 45.377 104.400 46.022 102.344 46.079 C 100.780 46.122 100.082 46.391 100.793 46.677 C 101.504 46.962 103.221 46.910 104.608 46.562 C 106.511 46.085 107.047 45.386 106.794 43.715 L 106.459 41.500 105.823 43.750 "/></g>
<g fill="#FCF0E1FD" stroke="#FCF0E1FD">
<path d="M 173.667 306.911 C 176.509 307.257 178.620 307.193 178.358 306.770 C 178.096 306.346 175.771 306.063 173.191 306.141 L 168.500 306.282 173.667 306.911 "/></g>
<g fill="#A8ACADFD" stroke="#A8ACADFD">
<path d="M 321.500 255.093 L 316.500 255.686 321.250 255.843 C 323.863 255.929 326.113 255.663 326.250 255.250 C 326.388 254.838 324.250 254.767 321.500 255.093 "/></g>
<g fill="#D0AD48FD" stroke="#D0AD48FD">
<path d="M 63.667 205.911 C 66.509 206.257 68.620 206.193 68.358 205.770 C 68.096 205.346 65.771 205.063 63.191 205.141 L 58.500 205.282 63.667 205.911 "/></g>
<g fill="#F8896CFD" stroke="#F8896CFD">
<path d="M 56.150 155.000 C 56.068 155.550 54.425 156.090 52.500 156.200 C 49.095 156.395 49.101 156.401 52.750 156.450 C 55.161 156.482 56.464 156.054 56.400 155.250 C 56.345 154.563 56.233 154.450 56.150 155.000 "/></g>
<g fill="#F8896CFD" stroke="#F8896CFD">
<path d="M 64.500 95.108 L 60.500 95.716 64.833 95.858 C 67.217 95.936 69.017 95.663 68.833 95.250 C 68.650 94.838 66.700 94.774 64.500 95.108 "/></g>
<g fill="#A8ACADFD" stroke="#A8ACADFD">
<path d="M 64.000 219.100 L 59.500 219.700 63.750 219.850 C 66.088 219.932 68.113 219.663 68.250 219.250 C 68.388 218.838 66.475 218.770 64.000 219.100 "/></g>
<g fill="#F8896CFD" stroke="#F8896CFD">
<path d="M 253.500 306.953 C 255.420 307.823 260.776 308.390 259.917 307.633 C 259.688 307.431 257.700 306.991 255.500 306.656 C 252.712 306.232 252.106 306.322 253.500 306.953 "/></g>
<g fill="#F8896CFD" stroke="#F8896CFD">
<path d="M 79.975 256.658 C 80.539 256.938 81.088 258.479 81.194 260.083 C 81.370 262.722 81.394 262.698 81.444 259.833 C 81.476 258.031 80.951 256.555 80.225 256.408 C 79.524 256.266 79.411 256.379 79.975 256.658 "/></g>
<g fill="#F8896CFD" stroke="#F8896CFD">
<path d="M 286.750 320.720 C 287.988 320.947 289.068 321.553 289.150 322.066 C 289.233 322.580 289.345 322.438 289.400 321.750 C 289.455 321.063 288.375 320.457 287.000 320.404 C 284.825 320.320 284.792 320.361 286.750 320.720 "/></g>
<g fill="#F8896CFD" stroke="#F8896CFD">
<path d="M 339.025 203.500 C 338.826 205.789 338.994 206.783 339.418 205.823 C 339.825 204.900 339.981 203.100 339.765 201.823 C 339.507 200.299 339.252 200.876 339.025 203.500 "/></g>
<g fill="#A8ACADFD" stroke="#A8ACADFD">
<path d="M 114.500 267.700 C 115.600 267.958 117.063 268.892 117.750 269.775 C 118.438 270.659 119.000 270.936 119.000 270.391 C 119.000 268.693 116.693 266.995 114.550 267.116 C 112.544 267.230 112.543 267.242 114.500 267.700 "/></g>
<g fill="#D0AD48FD" stroke="#D0AD48FD">
<path d="M 350.909 165.750 C 350.600 167.538 350.747 169.000 351.237 169.000 C 351.726 169.000 351.980 167.538 351.800 165.750 L 351.473 162.500 350.909 165.750 "/></g>
<g fill="#F8896CFD" stroke="#F8896CFD">
<path d="M 199.500 331.043 C 197.794 331.739 197.934 331.870 200.450 331.930 C 202.210 331.972 203.017 331.642 202.450 331.114 C 201.928 330.626 200.600 330.594 199.500 331.043 "/></g>
<g fill="#F8896CFD" stroke="#F8896CFD">
<path d="M 66.250 206.631 C 67.213 206.914 68.075 207.789 68.167 208.573 C 68.258 209.358 68.371 209.219 68.417 208.264 C 68.466 207.229 67.692 206.444 66.500 206.321 C 64.946 206.161 64.890 206.230 66.250 206.631 "/></g>
<g fill="#FCF0E1FD" stroke="#FCF0E1FD">
<path d="M 142.581 306.131 C 142.876 306.609 144.329 306.954 145.809 306.898 C 148.343 306.801 148.312 306.751 145.272 306.028 C 143.479 305.602 142.282 305.648 142.581 306.131 "/></g>
<g fill="#A8ACADFD" stroke="#A8ACADFD">
<path d="M 57.079 99.250 C 57.132 100.753 57.347 101.002 57.729 100.000 C 58.043 99.175 58.795 98.169 59.400 97.765 C 60.078 97.312 59.829 97.025 58.750 97.015 C 57.574 97.005 57.026 97.738 57.079 99.250 "/></g>
<g fill="#D0AD48FD" stroke="#D0AD48FD">
<path d="M 339.086 155.250 C 339.039 156.763 339.411 158.000 339.914 158.000 C 340.444 158.000 340.480 156.847 339.999 155.250 L 339.172 152.500 339.086 155.250 "/></g>
<g fill="#F8896CFD" stroke="#F8896CFD">
<path d="M 315.667 256.667 C 315.300 257.033 315.000 257.740 315.000 258.238 C 315.000 258.736 315.707 258.436 316.571 257.571 C 317.436 256.707 317.736 256.000 317.238 256.000 C 316.740 256.000 316.033 256.300 315.667 256.667 "/></g>
<g fill="#F8896CFD" stroke="#F8896CFD">
<path d="M 94.000 48.050 C 94.000 48.771 94.547 48.781 95.750 48.080 C 97.417 47.109 97.417 47.059 95.750 47.030 C 94.788 47.014 94.000 47.472 94.000 48.050 "/></g>
<g fill="#A8ACADFD" stroke="#A8ACADFD">
<path d="M 45.729 157.604 C 44.608 158.725 44.865 160.202 46.053 159.467 C 46.632 159.110 46.960 158.380 46.782 157.846 C 46.604 157.312 46.130 157.203 45.729 157.604 "/></g>
</svg>
